<svg xmlns="http://www.w3.org/2000/svg" width="50" height="50"><path d="M14 4C8.489 4 4 8.489 4 14v22c0 5.511 4.489 10 10 10h22c5.511 0 10-4.489 10-10V14c0-5.511-4.489-10-10-10H14zm0 2h22c4.43 0 8 3.57 8 8v22c0 4.43-3.57 8-8 8H14c-4.43 0-8-3.57-8-8V14c0-4.43 3.57-8 8-8zm7.133 6a3.003 3.003 0 00-2.572 1.457l-1.836 3.057a1.001 1.001 0 01-.858.486H11c-1.093 0-2 .907-2 2v16c0 1.093.907 2 2 2h28c1.093 0 2-.907 2-2V19c0-1.093-.907-2-2-2h-4.867a.996.996 0 01-.858-.484 1 1 0 000-.002l-1.836-3.057A3.004 3.004 0 0028.867 12h-7.734zM12 14a1 1 0 00-1 1v1h4v-1a1 1 0 00-1-1h-2zm9.133 0h7.734c.352 0 .677.183.858.484a1 1 0 000 .002l1.834 3.057A3.006 3.006 0 0034.133 19H39v16H11V19h4.867c1.053 0 2.03-.554 2.572-1.455a1 1 0 00.002-.002l1.834-3.057a1 1 0 000-.002.996.996 0 01.858-.484zM25 20c-3.854 0-7 3.146-7 7s3.146 7 7 7 7-3.146 7-7-3.146-7-7-7zm9 0a1 1 0 000 2 1 1 0 000-2zm-9 2c2.773 0 5 2.227 5 5s-2.227 5-5 5-5-2.227-5-5 2.227-5 5-5z"/></svg>